<svg width="240" height="44" viewBox="0 0 240 44" fill="none" xmlns="http://www.w3.org/2000/svg">
<path d="M0 22C0 9.84974 9.84974 0 22 0H218C230.15 0 240 9.84974 240 22C240 34.1503 230.15 44 218 44H22C9.84973 44 0 34.1503 0 22Z" fill="white"/>
<path d="M23.415 18.3002C23.6734 15.3002 25.215 14.0752 28.59 14.0752H28.6984C32.4234 14.0752 33.915 15.5669 33.915 19.2919V24.7252C33.915 28.4502 32.4234 29.9419 28.6984 29.9419H28.59C25.24 29.9419 23.6984 28.7335 23.4234 25.7835" stroke="#25262F" stroke-linecap="round" stroke-linejoin="round"/>
<path d="M28.5009 22H19.0176" stroke="#25262F" stroke-linecap="round" stroke-linejoin="round"/>
<path d="M20.8747 19.2084L18.083 22L20.8747 24.7917" stroke="#25262F" stroke-linecap="round" stroke-linejoin="round"/>
<path d="M45.2 27V15.8H46.544V25.928H51.76V27H45.2ZM56.9581 27.192C56.2115 27.192 55.5395 27.0213 54.9421 26.68C54.3448 26.328 53.8701 25.8373 53.5181 25.208C53.1768 24.5787 53.0061 23.8373 53.0061 22.984C53.0061 22.1307 53.1821 21.3893 53.5341 20.76C53.8861 20.1307 54.3608 19.6453 54.9581 19.304C55.5661 18.952 56.2435 18.776 56.9901 18.776C57.7475 18.776 58.4248 18.952 59.0221 19.304C59.6195 19.6453 60.0888 20.1307 60.4301 20.76C60.7715 21.3893 60.9421 22.1307 60.9421 22.984C60.9421 23.8373 60.7661 24.5787 60.4141 25.208C60.0728 25.8373 59.5981 26.328 58.9901 26.68C58.3928 27.0213 57.7155 27.192 56.9581 27.192ZM56.9581 26.04C57.4275 26.04 57.8595 25.928 58.2541 25.704C58.6488 25.4693 58.9635 25.128 59.1981 24.68C59.4435 24.2213 59.5661 23.656 59.5661 22.984C59.5661 22.3013 59.4488 21.736 59.2141 21.288C58.9795 20.84 58.6648 20.504 58.2701 20.28C57.8755 20.0453 57.4488 19.928 56.9901 19.928C56.5421 19.928 56.1155 20.0453 55.7101 20.28C55.3155 20.504 54.9955 20.84 54.7501 21.288C54.5048 21.736 54.3821 22.3013 54.3821 22.984C54.3821 23.656 54.5048 24.2213 54.7501 24.68C54.9955 25.128 55.3101 25.4693 55.6941 25.704C56.0888 25.928 56.5101 26.04 56.9581 26.04ZM65.8267 30.712C65.1014 30.712 64.4614 30.616 63.9067 30.424C63.3521 30.2427 62.9201 29.96 62.6107 29.576C62.3014 29.192 62.1467 28.7173 62.1467 28.152C62.1467 27.9067 62.1947 27.6453 62.2907 27.368C62.3974 27.1013 62.5734 26.8347 62.8187 26.568C63.0747 26.3013 63.4321 26.0613 63.8907 25.848L64.8027 26.392C64.2481 26.6267 63.8854 26.8933 63.7147 27.192C63.5441 27.4907 63.4587 27.768 63.4587 28.024C63.4587 28.376 63.5601 28.6693 63.7627 28.904C63.9654 29.1387 64.2427 29.3147 64.5947 29.432C64.9574 29.5493 65.3681 29.608 65.8267 29.608C66.2854 29.608 66.6801 29.5387 67.0107 29.4C67.3414 29.272 67.5974 29.0907 67.7787 28.856C67.9601 28.632 68.0507 28.36 68.0507 28.04C68.0507 27.6773 67.9121 27.368 67.6347 27.112C67.3574 26.8667 66.8348 26.7227 66.0668 26.68C65.4267 26.6373 64.8934 26.5787 64.4667 26.504C64.0507 26.4293 63.7041 26.344 63.4267 26.248C63.1494 26.1413 62.9147 26.024 62.7227 25.896C62.5414 25.768 62.3761 25.6347 62.2267 25.496V25.128L63.7787 23.576L64.9467 23.992L63.3467 25.448L63.5547 24.888C63.6721 24.9733 63.7841 25.0533 63.8907 25.128C63.9974 25.192 64.1414 25.2507 64.3227 25.304C64.5041 25.3573 64.7547 25.4107 65.0747 25.464C65.3947 25.5067 65.8267 25.5493 66.3707 25.592C67.0961 25.6453 67.6774 25.7733 68.1147 25.976C68.5627 26.1787 68.8827 26.4507 69.0747 26.792C69.2774 27.1333 69.3787 27.5333 69.3787 27.992C69.3787 28.4507 69.2507 28.8827 68.9948 29.288C68.7494 29.704 68.3654 30.0453 67.8428 30.312C67.3201 30.5787 66.6481 30.712 65.8267 30.712ZM65.8108 24.472C65.1387 24.472 64.5681 24.3493 64.0987 24.104C63.6294 23.848 63.2721 23.5067 63.0267 23.08C62.7814 22.6427 62.6587 22.1573 62.6587 21.624C62.6587 21.0907 62.7814 20.6107 63.0267 20.184C63.2721 19.7573 63.6294 19.416 64.0987 19.16C64.5681 18.904 65.1387 18.776 65.8108 18.776C66.4934 18.776 67.0694 18.904 67.5388 19.16C68.0081 19.416 68.3654 19.7573 68.6108 20.184C68.8561 20.6107 68.9788 21.0907 68.9788 21.624C68.9788 22.1573 68.8561 22.6427 68.6108 23.08C68.3654 23.5067 68.0081 23.848 67.5388 24.104C67.0694 24.3493 66.4934 24.472 65.8108 24.472ZM65.8108 23.368C66.3867 23.368 66.8401 23.224 67.1708 22.936C67.5121 22.6373 67.6827 22.2 67.6827 21.624C67.6827 21.0693 67.5121 20.6427 67.1708 20.344C66.8401 20.0453 66.3867 19.896 65.8108 19.896C65.2454 19.896 64.7921 20.0453 64.4507 20.344C64.1094 20.6427 63.9387 21.0693 63.9387 21.624C63.9387 22.2 64.1094 22.6373 64.4507 22.936C64.7921 23.224 65.2454 23.368 65.8108 23.368ZM67.1227 20.104L66.7227 18.968H70.0188V19.976L67.1227 20.104ZM75.0125 27.192C74.2658 27.192 73.5938 27.0213 72.9965 26.68C72.3992 26.328 71.9245 25.8373 71.5725 25.208C71.2312 24.5787 71.0605 23.8373 71.0605 22.984C71.0605 22.1307 71.2365 21.3893 71.5885 20.76C71.9405 20.1307 72.4152 19.6453 73.0125 19.304C73.6205 18.952 74.2978 18.776 75.0445 18.776C75.8018 18.776 76.4792 18.952 77.0765 19.304C77.6738 19.6453 78.1432 20.1307 78.4845 20.76C78.8258 21.3893 78.9965 22.1307 78.9965 22.984C78.9965 23.8373 78.8205 24.5787 78.4685 25.208C78.1272 25.8373 77.6525 26.328 77.0445 26.68C76.4472 27.0213 75.7698 27.192 75.0125 27.192ZM75.0125 26.04C75.4818 26.04 75.9138 25.928 76.3085 25.704C76.7032 25.4693 77.0178 25.128 77.2525 24.68C77.4978 24.2213 77.6205 23.656 77.6205 22.984C77.6205 22.3013 77.5032 21.736 77.2685 21.288C77.0338 20.84 76.7192 20.504 76.3245 20.28C75.9298 20.0453 75.5032 19.928 75.0445 19.928C74.5965 19.928 74.1698 20.0453 73.7645 20.28C73.3698 20.504 73.0498 20.84 72.8045 21.288C72.5592 21.736 72.4365 22.3013 72.4365 22.984C72.4365 23.656 72.5592 24.2213 72.8045 24.68C73.0498 25.128 73.3645 25.4693 73.7485 25.704C74.1432 25.928 74.5645 26.04 75.0125 26.04ZM83.9689 27.192C83.3502 27.192 82.8062 27.0693 82.3369 26.824C81.8782 26.5787 81.5209 26.2 81.2649 25.688C81.0195 25.176 80.8969 24.5307 80.8969 23.752V18.968H82.2409V23.608C82.2409 24.4187 82.4169 25.0267 82.7689 25.432C83.1209 25.8373 83.6222 26.04 84.2729 26.04C84.7209 26.04 85.1262 25.9333 85.4889 25.72C85.8515 25.496 86.1342 25.176 86.3369 24.76C86.5502 24.344 86.6569 23.8373 86.6569 23.24V18.968H88.0009V27H86.7849L86.7049 25.592C86.4489 26.0933 86.0809 26.488 85.6009 26.776C85.1209 27.0533 84.5769 27.192 83.9689 27.192ZM93.5407 27C93.0607 27 92.6447 26.9253 92.2927 26.776C91.9407 26.6267 91.6687 26.376 91.4767 26.024C91.2954 25.6613 91.2047 25.176 91.2047 24.568V20.104H89.8127V18.968H91.2047L91.3807 17.032H92.5487V18.968H94.9007V20.104H92.5487V24.568C92.5487 25.0693 92.6501 25.4107 92.8527 25.592C93.0554 25.7627 93.4127 25.848 93.9247 25.848H94.7887V27H93.5407Z" fill="#25262F"/>
</svg>
