<svg width="20" height="20" viewBox="0 0 20 20" fill="none" xmlns="http://www.w3.org/2000/svg">
<path d="M19.1667 15C19.1667 15.625 18.9917 16.2167 18.6833 16.7167C18.5083 17.0167 18.2833 17.2834 18.025 17.5C17.4417 18.025 16.675 18.3334 15.8333 18.3334C14.8167 18.3334 13.9083 17.875 13.3083 17.1584C13.2917 17.1334 13.2667 17.1167 13.25 17.0917C13.15 16.975 13.0583 16.85 12.9833 16.7167C12.675 16.2167 12.5 15.625 12.5 15C12.5 13.95 12.9833 13.0084 13.75 12.4C14.325 11.9417 15.05 11.6667 15.8333 11.6667C16.6667 11.6667 17.4167 11.9667 18 12.475C18.1 12.55 18.1917 12.6417 18.275 12.7334C18.825 13.3334 19.1667 14.125 19.1667 15Z" stroke="#25262F" stroke-miterlimit="10" stroke-linecap="round" stroke-linejoin="round"/>
<path d="M17.0761 14.9833H14.5928" stroke="#25262F" stroke-miterlimit="10" stroke-linecap="round" stroke-linejoin="round"/>
<path d="M15.833 13.7667V16.2583" stroke="#25262F" stroke-miterlimit="10" stroke-linecap="round" stroke-linejoin="round"/>
<path d="M2.64355 6.19995L10.0019 10.4583L17.3102 6.22492" stroke="#25262F" stroke-linecap="round" stroke-linejoin="round"/>
<path d="M10 18.0084V10.45" stroke="#25262F" stroke-linecap="round" stroke-linejoin="round"/>
<path d="M18.0089 7.64169V12.3584C18.0089 12.4001 18.0089 12.4333 18.0005 12.475C17.4172 11.9667 16.6672 11.6667 15.8339 11.6667C15.0505 11.6667 14.3255 11.9417 13.7505 12.4C12.9839 13.0084 12.5005 13.95 12.5005 15C12.5005 15.625 12.6755 16.2167 12.9839 16.7167C13.0589 16.85 13.1505 16.975 13.2505 17.0917L11.7255 17.9334C10.7755 18.4667 9.22552 18.4667 8.27552 17.9334L3.82552 15.4667C2.81718 14.9084 1.99219 13.5084 1.99219 12.3584L1.99219 7.64169C1.99219 6.49169 2.81718 5.09171 3.82552 4.53337L8.27552 2.06669C9.22552 1.53335 10.7755 1.53335 11.7255 2.06669L16.1755 4.53337C17.1839 5.09171 18.0089 6.49169 18.0089 7.64169Z" stroke="#25262F" stroke-linecap="round" stroke-linejoin="round"/>
</svg>
