<svg width="20" height="20" viewBox="0 0 20 20" fill="none" xmlns="http://www.w3.org/2000/svg">
<path d="M5.41699 18.3333V12.5" stroke="#25262F" stroke-miterlimit="10" stroke-linecap="round" stroke-linejoin="round"/>
<path d="M5.41699 4.16666V1.66666" stroke="#25262F" stroke-miterlimit="10" stroke-linecap="round" stroke-linejoin="round"/>
<path d="M14.583 18.3333V15.8333" stroke="#25262F" stroke-miterlimit="10" stroke-linecap="round" stroke-linejoin="round"/>
<path d="M14.583 7.49999V1.66666" stroke="#25262F" stroke-miterlimit="10" stroke-linecap="round" stroke-linejoin="round"/>
<path d="M7.91699 5.83332V10.8333C7.91699 11.75 7.50033 12.5 6.25033 12.5H4.58366C3.33366 12.5 2.91699 11.75 2.91699 10.8333L2.91699 5.83332C2.91699 4.91666 3.33366 4.16666 4.58366 4.16666H6.25033C7.50033 4.16666 7.91699 4.91666 7.91699 5.83332Z" stroke="#25262F" stroke-miterlimit="10" stroke-linecap="round" stroke-linejoin="round"/>
<path d="M17.083 9.16667V14.1667C17.083 15.0833 16.6663 15.8333 15.4163 15.8333H13.7497C12.4997 15.8333 12.083 15.0833 12.083 14.1667V9.16667C12.083 8.25 12.4997 7.5 13.7497 7.5H15.4163C16.6663 7.5 17.083 8.25 17.083 9.16667Z" stroke="#25262F" stroke-miterlimit="10" stroke-linecap="round" stroke-linejoin="round"/>
</svg>
