<svg width="20" height="20" viewBox="0 0 20 20" fill="none" xmlns="http://www.w3.org/2000/svg">
<path d="M16.6663 7.99998C16.6663 4.66665 15.333 3.33331 11.9997 3.33331H7.99967C4.66634 3.33331 3.33301 4.66665 3.33301 7.99998V12C3.33301 15.3333 4.66634 16.6666 7.99967 16.6666" stroke="#25262F" stroke-linecap="round" stroke-linejoin="round"/>
<path d="M13.6247 6.66665C13.1663 6.08331 12.3997 5.83331 11.2497 5.83331H8.74967C6.66634 5.83331 5.83301 6.66665 5.83301 8.74998V11.25C5.83301 12.4 6.08301 13.1666 6.65801 13.625" stroke="#25262F" stroke-linecap="round" stroke-linejoin="round"/>
<path d="M6.67676 3.33335V1.66669" stroke="#25262F" stroke-linecap="round" stroke-linejoin="round"/>
<path d="M10 3.33335V1.66669" stroke="#25262F" stroke-linecap="round" stroke-linejoin="round"/>
<path d="M13.333 3.33335V1.66669" stroke="#25262F" stroke-linecap="round" stroke-linejoin="round"/>
<path d="M16.667 6.66669H18.3337" stroke="#25262F" stroke-linecap="round" stroke-linejoin="round"/>
<path d="M6.67676 16.6667V18.3334" stroke="#25262F" stroke-linecap="round" stroke-linejoin="round"/>
<path d="M1.66699 6.66669H3.33366" stroke="#25262F" stroke-linecap="round" stroke-linejoin="round"/>
<path d="M1.66699 10H3.33366" stroke="#25262F" stroke-linecap="round" stroke-linejoin="round"/>
<path d="M1.66699 13.3333H3.33366" stroke="#25262F" stroke-linecap="round" stroke-linejoin="round"/>
<path d="M13.9256 15.4918C14.6574 15.4918 15.2506 14.8986 15.2506 14.1668C15.2506 13.435 14.6574 12.8418 13.9256 12.8418C13.1938 12.8418 12.6006 13.435 12.6006 14.1668C12.6006 14.8986 13.1938 15.4918 13.9256 15.4918Z" stroke="#25262F" stroke-miterlimit="10" stroke-linecap="round" stroke-linejoin="round"/>
<path d="M9.50879 14.55V13.775C9.50879 13.3167 9.88379 12.9417 10.3421 12.9417C11.1421 12.9417 11.4671 12.375 11.0671 11.6834C10.8338 11.2834 10.9755 10.7667 11.3755 10.5417L12.1338 10.1C12.4838 9.89169 12.9338 10.0167 13.1421 10.3667L13.1921 10.45C13.5921 11.1417 14.2421 11.1417 14.6421 10.45L14.6921 10.3667C14.9005 10.0167 15.3505 9.90002 15.7005 10.1L16.4588 10.5417C16.8588 10.775 17.0005 11.2834 16.7671 11.6834C16.3671 12.375 16.6921 12.9417 17.4921 12.9417C17.9505 12.9417 18.3255 13.3167 18.3255 13.775V14.55C18.3255 15.0084 17.9505 15.3834 17.4921 15.3834C16.6921 15.3834 16.3671 15.95 16.7671 16.6417C17.0005 17.0417 16.8588 17.5584 16.4588 17.7834L15.7005 18.225C15.3505 18.4334 14.9005 18.3084 14.6921 17.9584L14.6421 17.875C14.2421 17.1834 13.5921 17.1834 13.1921 17.875L13.1421 17.9584C12.9338 18.3084 12.4838 18.425 12.1338 18.225L11.3755 17.7834C10.9755 17.55 10.8338 17.0417 11.0671 16.6417C11.4671 15.95 11.1421 15.3834 10.3421 15.3834C9.88379 15.3917 9.50879 15.0167 9.50879 14.55Z" stroke="#25262F" stroke-miterlimit="10" stroke-linecap="round" stroke-linejoin="round"/>
</svg>
