<svg width="20" height="20" viewBox="0 0 20 20" fill="none" xmlns="http://www.w3.org/2000/svg">
<path d="M18.3333 6.89166V3.525C18.3333 2.2 17.8 1.66666 16.475 1.66666H13.1083C11.7833 1.66666 11.25 2.2 11.25 3.525V6.89166C11.25 8.21666 11.7833 8.75 13.1083 8.75H16.475C17.8 8.75 18.3333 8.21666 18.3333 6.89166Z" stroke="#25262F" stroke-linecap="round" stroke-linejoin="round"/>
<path d="M8.75033 7.1V3.31666C8.75033 2.14166 8.21699 1.66666 6.89199 1.66666H3.52533C2.20033 1.66666 1.66699 2.14166 1.66699 3.31666L1.66699 7.09166C1.66699 8.275 2.20033 8.74166 3.52533 8.74166H6.89199C8.21699 8.75 8.75033 8.275 8.75033 7.1Z" stroke="#25262F" stroke-linecap="round" stroke-linejoin="round"/>
<path d="M8.75033 16.475V13.1083C8.75033 11.7833 8.21699 11.25 6.89199 11.25H3.52533C2.20033 11.25 1.66699 11.7833 1.66699 13.1083V16.475C1.66699 17.8 2.20033 18.3333 3.52533 18.3333H6.89199C8.21699 18.3333 8.75033 17.8 8.75033 16.475Z" stroke="#25262F" stroke-linecap="round" stroke-linejoin="round"/>
<path d="M12.5 12.9167H17.5" stroke="#25262F" stroke-width="1.5" stroke-linecap="round"/>
<path d="M12.5 16.25H17.5" stroke="#25262F" stroke-width="1.5" stroke-linecap="round"/>
</svg>
