<svg width="20" height="20" viewBox="0 0 20 20" fill="none" xmlns="http://www.w3.org/2000/svg">
<path d="M17.5 13.5417H12.5C12.1583 13.5417 11.875 13.2583 11.875 12.9167C11.875 12.575 12.1583 12.2917 12.5 12.2917H17.5C17.8417 12.2917 18.125 12.575 18.125 12.9167C18.125 13.2583 17.8417 13.5417 17.5 13.5417Z" fill="#F8192A" stroke="#F8192A" stroke-linecap="round"/>
<path d="M12.5 16.125H17.5C17.5301 16.125 17.5613 16.1374 17.5869 16.1631C17.6126 16.1887 17.625 16.2199 17.625 16.25C17.625 16.2801 17.6126 16.3113 17.5869 16.3369C17.5613 16.3626 17.5301 16.375 17.5 16.375H12.5C12.4699 16.375 12.4387 16.3626 12.4131 16.3369C12.3874 16.3113 12.375 16.2801 12.375 16.25C12.375 16.2199 12.3874 16.1887 12.4131 16.1631C12.4387 16.1374 12.4699 16.125 12.5 16.125Z" fill="#F8192A" stroke="#F8192A"/>
<path d="M18.3333 7.1V3.31666C18.3333 2.14166 17.8 1.66666 16.475 1.66666H13.1083C11.7833 1.66666 11.25 2.14166 11.25 3.31666V7.09166C11.25 8.275 11.7833 8.74166 13.1083 8.74166H16.475C17.8 8.75 18.3333 8.275 18.3333 7.1Z" fill="#F8192A"/>
<path d="M8.75008 7.1V3.31666C8.75008 2.14166 8.21675 1.66666 6.89175 1.66666H3.52508C2.20008 1.66666 1.66675 2.14166 1.66675 3.31666L1.66675 7.09166C1.66675 8.275 2.20008 8.74166 3.52508 8.74166H6.89175C8.21675 8.75 8.75008 8.275 8.75008 7.1Z" fill="#F8192A"/>
<path d="M8.75008 16.475V13.1083C8.75008 11.7833 8.21675 11.25 6.89175 11.25H3.52508C2.20008 11.25 1.66675 11.7833 1.66675 13.1083V16.475C1.66675 17.8 2.20008 18.3333 3.52508 18.3333H6.89175C8.21675 18.3333 8.75008 17.8 8.75008 16.475Z" fill="#F8192A"/>
</svg>
