<svg width="20" height="21" viewBox="0 0 20 21" fill="none" xmlns="http://www.w3.org/2000/svg">
<path d="M18.3337 11C18.3337 15.6 14.6003 19.3333 10.0003 19.3333C5.40033 19.3333 1.66699 15.6 1.66699 11C1.66699 6.40001 5.40033 2.66667 10.0003 2.66667" stroke="#25262F" stroke-linecap="round" stroke-linejoin="round"/>
<path d="M10.2165 14.3333C9.70396 14.3333 9.31702 14.1831 9.05564 13.8827C8.79939 13.5769 8.67126 13.1536 8.67126 12.6128V11.4331C9.16327 11.4331 9.55533 11.4167 9.84746 11.3839C10.1447 11.3457 10.3651 11.2747 10.5086 11.1709C10.6572 11.0616 10.7546 10.9005 10.8007 10.6875C10.8468 10.4745 10.8699 10.1905 10.8699 9.83544V8.79494H11.4772V9.83544C11.4772 10.2287 11.4414 10.5591 11.3696 10.8268C11.303 11.0944 11.1851 11.3102 11.016 11.474C10.852 11.6324 10.6265 11.7471 10.3395 11.8181C10.0576 11.8837 9.70396 11.9164 9.27858 11.9164V12.6374C9.27858 12.987 9.35033 13.2683 9.49383 13.4813C9.63733 13.6888 9.88077 13.7926 10.2242 13.7926C10.5419 13.7926 10.7725 13.6943 10.916 13.4977C11.0647 13.301 11.139 13.0307 11.139 12.6866H11.7386C11.7335 13.2273 11.5977 13.6369 11.3312 13.9155C11.0698 14.1941 10.6982 14.3333 10.2165 14.3333ZM8.33301 10.4335V9.94195H12.4997V10.4335H8.33301ZM8.33301 8.99977V8.5H12.4997V8.99977H8.33301Z" fill="#25262F"/>
<path d="M14.167 3.5V6.83333H17.5003" stroke="#25262F" stroke-linecap="round" stroke-linejoin="round"/>
<path d="M18.3337 2.66667L14.167 6.83334" stroke="#25262F" stroke-linecap="round" stroke-linejoin="round"/>
</svg>
