<svg width="20" height="20" viewBox="0 0 20 20" fill="none" xmlns="http://www.w3.org/2000/svg">
<path d="M17.5 13.5417H12.5C12.1583 13.5417 11.875 13.2583 11.875 12.9167C11.875 12.575 12.1583 12.2917 12.5 12.2917H17.5C17.8417 12.2917 18.125 12.575 18.125 12.9167C18.125 13.2583 17.8417 13.5417 17.5 13.5417Z" fill="#F8192A" stroke="#F8192A" stroke-linecap="round"/>
<path d="M12.5 16.125H17.5C17.5301 16.125 17.5613 16.1374 17.5869 16.1631C17.6126 16.1887 17.625 16.2199 17.625 16.25C17.625 16.2801 17.6126 16.3113 17.5869 16.3369C17.5613 16.3626 17.5301 16.375 17.5 16.375H12.5C12.4699 16.375 12.4387 16.3626 12.4131 16.3369C12.3874 16.3113 12.375 16.2801 12.375 16.25C12.375 16.2199 12.3874 16.1887 12.4131 16.1631C12.4387 16.1374 12.4699 16.125 12.5 16.125Z" fill="#F8192A" stroke="#F8192A"/>
<path d="M18.3333 7.10001V3.31667C18.3333 2.14167 17.8 1.66667 16.475 1.66667H13.1083C11.7833 1.66667 11.25 2.14167 11.25 3.31667V7.09167C11.25 8.275 11.7833 8.74167 13.1083 8.74167H16.475C17.8 8.75 18.3333 8.27501 18.3333 7.10001Z" fill="#F8192A"/>
<path d="M8.74984 7.10001V3.31667C8.74984 2.14167 8.2165 1.66667 6.8915 1.66667H3.52484C2.19984 1.66667 1.6665 2.14167 1.6665 3.31667L1.6665 7.09167C1.6665 8.275 2.19984 8.74167 3.52484 8.74167H6.8915C8.2165 8.75 8.74984 8.27501 8.74984 7.10001Z" fill="#F8192A"/>
<path d="M8.74984 16.475V13.1083C8.74984 11.7833 8.2165 11.25 6.8915 11.25H3.52484C2.19984 11.25 1.6665 11.7833 1.6665 13.1083V16.475C1.6665 17.8 2.19984 18.3333 3.52484 18.3333H6.8915C8.2165 18.3333 8.74984 17.8 8.74984 16.475Z" fill="#F8192A"/>
</svg>
