<svg width="20" height="20" viewBox="0 0 20 20" fill="none" xmlns="http://www.w3.org/2000/svg">
<path d="M16.6663 6.87502V15C16.6663 17.5 15.1747 18.3334 13.333 18.3334H6.66634C4.82467 18.3334 3.33301 17.5 3.33301 15L3.33301 6.87502C3.33301 4.16669 4.82467 3.54169 6.66634 3.54169C6.66634 4.05835 6.87465 4.52502 7.21632 4.86668C7.55799 5.20835 8.02467 5.41669 8.54134 5.41669H11.458C12.4913 5.41669 13.333 4.57502 13.333 3.54169C15.1747 3.54169 16.6663 4.16669 16.6663 6.87502Z" stroke="#25262F" stroke-linecap="round" stroke-linejoin="round"/>
<path d="M13.3337 3.54169C13.3337 4.57502 12.492 5.41669 11.4587 5.41669H8.54199C8.02533 5.41669 7.55864 5.20835 7.21697 4.86668C6.8753 4.52502 6.66699 4.05835 6.66699 3.54169C6.66699 2.50835 7.50866 1.66669 8.54199 1.66669H11.4587C11.9753 1.66669 12.442 1.87502 12.7837 2.21669C13.1253 2.55836 13.3337 3.02502 13.3337 3.54169Z" stroke="#25262F" stroke-linecap="round" stroke-linejoin="round"/>
<path d="M6.66699 10.8333H10.0003" stroke="#25262F" stroke-linecap="round" stroke-linejoin="round"/>
<path d="M6.66699 14.1667H13.3337" stroke="#25262F" stroke-linecap="round" stroke-linejoin="round"/>
</svg>
