<svg width="20" height="20" viewBox="0 0 20 20" fill="none" xmlns="http://www.w3.org/2000/svg">
<path d="M15 15.7167H14.3667C13.7 15.7167 13.0667 15.975 12.6 16.4417L11.175 17.85C10.525 18.4917 9.46668 18.4917 8.81668 17.85L7.39166 16.4417C6.925 15.975 6.28333 15.7167 5.625 15.7167H5C3.61667 15.7167 2.5 14.6083 2.5 13.2417L2.5 4.14166C2.5 2.77499 3.61667 1.66666 5 1.66666H15C16.3833 1.66666 17.5 2.77499 17.5 4.14166V13.2333C17.5 14.6 16.3833 15.7167 15 15.7167Z" stroke="#25262F" stroke-miterlimit="10" stroke-linecap="round" stroke-linejoin="round"/>
<path d="M10.0608 7.45816C10.0275 7.45816 9.97748 7.45816 9.93581 7.45816C9.06081 7.42483 8.36914 6.71649 8.36914 5.83316C8.36914 4.93316 9.09415 4.20816 9.99415 4.20816C10.8942 4.20816 11.6192 4.94149 11.6192 5.83316C11.6275 6.71649 10.9358 7.43316 10.0608 7.45816Z" stroke="#25262F" stroke-linecap="round" stroke-linejoin="round"/>
<path d="M7.70918 9.96649C6.60085 10.7082 6.60085 11.9165 7.70918 12.6582C8.96751 13.4998 11.0342 13.4998 12.2925 12.6582C13.4008 11.9165 13.4008 10.7082 12.2925 9.96649C11.0342 9.13316 8.97585 9.13316 7.70918 9.96649Z" stroke="#25262F" stroke-linecap="round" stroke-linejoin="round"/>
</svg>
