<svg width="20" height="20" viewBox="0 0 20 20" fill="none" xmlns="http://www.w3.org/2000/svg">
<path d="M8.95933 14.0503V15.742C8.95933 17.1753 7.62599 18.3336 5.98432 18.3336C4.34266 18.3336 3.00098 17.1753 3.00098 15.742V14.0503C3.00098 15.4836 4.33432 16.5003 5.98432 16.5003C7.62599 16.5003 8.95933 15.4753 8.95933 14.0503Z" stroke="#25262F" stroke-linecap="round" stroke-linejoin="round"/>
<path d="M8.95786 11.7581C8.95786 12.1748 8.84118 12.5581 8.64118 12.8914C8.14952 13.6998 7.14117 14.2081 5.97451 14.2081C4.80784 14.2081 3.7995 13.6914 3.30783 12.8914C3.10783 12.5581 2.99121 12.1748 2.99121 11.7581C2.99121 11.0415 3.32453 10.3998 3.85786 9.93312C4.39953 9.45812 5.14117 9.1748 5.96617 9.1748C6.79117 9.1748 7.53286 9.46645 8.07452 9.93312C8.62452 10.3914 8.95786 11.0415 8.95786 11.7581Z" stroke="#25262F" stroke-linecap="round" stroke-linejoin="round"/>
<path d="M8.95933 11.7583V14.05C8.95933 15.4833 7.62599 16.5 5.98432 16.5C4.34266 16.5 3.00098 15.475 3.00098 14.05L3.00098 11.7583C3.00098 10.325 4.33432 9.16666 5.98432 9.16666C6.80932 9.16666 7.55102 9.4583 8.09268 9.92497C8.62602 10.3916 8.95933 11.0416 8.95933 11.7583Z" stroke="#25262F" stroke-linecap="round" stroke-linejoin="round"/>
<path d="M18.3338 9.14165V10.8584C18.3338 11.3167 17.9672 11.6917 17.5005 11.7083H15.8672C14.9672 11.7083 14.1422 11.05 14.0672 10.15C14.0172 9.625 14.2172 9.13333 14.5672 8.79167C14.8755 8.475 15.3005 8.29169 15.7672 8.29169H17.5005C17.9672 8.30835 18.3338 8.68332 18.3338 9.14165Z" stroke="#25262F" stroke-linecap="round" stroke-linejoin="round"/>
<path d="M1.66699 8.74999L1.66699 7.08332C1.66699 4.81666 3.03366 3.23332 5.15866 2.96665C5.37533 2.93332 5.60033 2.91666 5.83366 2.91666H13.3337C13.5503 2.91666 13.7587 2.92498 13.9587 2.95831C16.1087 3.20831 17.5003 4.79999 17.5003 7.08332V8.29167H15.767C15.3003 8.29167 14.8753 8.47498 14.567 8.79165C14.217 9.13331 14.017 9.62498 14.067 10.15C14.142 11.05 14.967 11.7083 15.867 11.7083H17.5003V12.9167C17.5003 15.4167 15.8337 17.0833 13.3337 17.0833H11.2503" stroke="#25262F" stroke-linecap="round" stroke-linejoin="round"/>
</svg>
