<svg width="14" height="14" viewBox="0 0 14 14" fill="none" xmlns="http://www.w3.org/2000/svg">
<mask id="path-1-inside-1_1286_33887" fill="white">
<path fill-rule="evenodd" clip-rule="evenodd" d="M11.5345 2.41569C11.5685 2.44955 11.5954 2.48978 11.6138 2.53407C11.6321 2.57835 11.6416 2.62583 11.6416 2.67378C11.6416 2.72173 11.6321 2.76921 11.6138 2.8135C11.5954 2.85779 11.5685 2.89801 11.5345 2.93187L3.51469 10.9517C3.44624 11.0201 3.3534 11.0586 3.2566 11.0586C3.1598 11.0586 3.06696 11.0201 2.99851 10.9517C2.93006 10.8832 2.8916 10.7904 2.8916 10.6936C2.8916 10.5968 2.93006 10.504 2.99851 10.4355L11.0183 2.41569C11.0522 2.38174 11.0924 2.35481 11.1367 2.33643C11.181 2.31805 11.2285 2.30859 11.2764 2.30859C11.3244 2.30859 11.3718 2.31805 11.4161 2.33643C11.4604 2.35481 11.5006 2.38174 11.5345 2.41569Z"/>
</mask>
<path fill-rule="evenodd" clip-rule="evenodd" d="M11.5345 2.41569C11.5685 2.44955 11.5954 2.48978 11.6138 2.53407C11.6321 2.57835 11.6416 2.62583 11.6416 2.67378C11.6416 2.72173 11.6321 2.76921 11.6138 2.8135C11.5954 2.85779 11.5685 2.89801 11.5345 2.93187L3.51469 10.9517C3.44624 11.0201 3.3534 11.0586 3.2566 11.0586C3.1598 11.0586 3.06696 11.0201 2.99851 10.9517C2.93006 10.8832 2.8916 10.7904 2.8916 10.6936C2.8916 10.5968 2.93006 10.504 2.99851 10.4355L11.0183 2.41569C11.0522 2.38174 11.0924 2.35481 11.1367 2.33643C11.181 2.31805 11.2285 2.30859 11.2764 2.30859C11.3244 2.30859 11.3718 2.31805 11.4161 2.33643C11.4604 2.35481 11.5006 2.38174 11.5345 2.41569Z" fill="black"/>
<path d="M11.5345 2.93187L10.4752 1.86987L10.4738 1.87121L11.5345 2.93187ZM2.8916 10.6936H1.3916H2.8916ZM11.0183 2.41569L12.079 3.47635L12.0803 3.47501L11.0183 2.41569ZM11.2764 2.30859V3.80859V2.30859ZM11.5345 2.41569L10.4752 3.47769C10.3694 3.37221 10.2855 3.24691 10.2283 3.10897L11.6138 2.53407L12.9992 1.95917C12.9052 1.73265 12.7675 1.52689 12.5938 1.35369L11.5345 2.41569ZM11.6138 2.53407L10.2283 3.10897C10.1711 2.97102 10.1416 2.82314 10.1416 2.67378H11.6416H13.1416C13.1416 2.42853 13.0932 2.18569 12.9992 1.95917L11.6138 2.53407ZM11.6416 2.67378H10.1416C10.1416 2.52443 10.1711 2.37654 10.2283 2.2386L11.6138 2.8135L12.9992 3.3884C13.0932 3.16188 13.1416 2.91903 13.1416 2.67378H11.6416ZM11.6138 2.8135L10.2283 2.2386C10.2855 2.10065 10.3694 1.97535 10.4752 1.86987L11.5345 2.93187L12.5938 3.99387C12.7675 3.82067 12.9052 3.61492 12.9992 3.3884L11.6138 2.8135ZM11.5345 2.93187L10.4738 1.87121L2.45403 9.89103L3.51469 10.9517L4.57535 12.0123L12.5952 3.99253L11.5345 2.93187ZM3.51469 10.9517L2.45403 9.89103C2.66689 9.67817 2.95558 9.55859 3.2566 9.55859V11.0586V12.5586C3.75122 12.5586 4.22559 12.3621 4.57535 12.0123L3.51469 10.9517ZM3.2566 11.0586V9.55859C3.55762 9.55859 3.84631 9.67817 4.05917 9.89103L2.99851 10.9517L1.93785 12.0123C2.2876 12.3621 2.76197 12.5586 3.2566 12.5586V11.0586ZM2.99851 10.9517L4.05917 9.89103C4.27202 10.1039 4.3916 10.3926 4.3916 10.6936H2.8916H1.3916C1.3916 11.1882 1.58809 11.6626 1.93785 12.0123L2.99851 10.9517ZM2.8916 10.6936H4.3916C4.3916 10.9946 4.27202 11.2833 4.05917 11.4962L2.99851 10.4355L1.93785 9.37484C1.58809 9.7246 1.3916 10.199 1.3916 10.6936H2.8916ZM2.99851 10.4355L4.05917 11.4962L12.079 3.47635L11.0183 2.41569L9.95766 1.35503L1.93785 9.37484L2.99851 10.4355ZM11.0183 2.41569L12.0803 3.47501C11.9748 3.58075 11.8495 3.66465 11.7116 3.72189L11.1367 2.33643L10.5618 0.950974C10.3353 1.04497 10.1295 1.18273 9.95632 1.35637L11.0183 2.41569ZM11.1367 2.33643L11.7116 3.72189C11.5737 3.77913 11.4258 3.80859 11.2764 3.80859V2.30859V0.808594C11.0312 0.808594 10.7883 0.856979 10.5618 0.950974L11.1367 2.33643ZM11.2764 2.30859V3.80859C11.1271 3.80859 10.9792 3.77913 10.8412 3.72189L11.4161 2.33643L11.991 0.950974C11.7645 0.856979 11.5217 0.808594 11.2764 0.808594V2.30859ZM11.4161 2.33643L10.8412 3.72189C10.7033 3.66465 10.578 3.58075 10.4725 3.47501L11.5345 2.41569L12.5965 1.35637C12.4233 1.18273 12.2175 1.04497 11.991 0.950974L11.4161 2.33643Z" fill="black" mask="url(#path-1-inside-1_1286_33887)"/>
<mask id="path-3-inside-2_1286_33887" fill="white">
<path fill-rule="evenodd" clip-rule="evenodd" d="M2.9987 2.41569C2.96475 2.44955 2.93782 2.48978 2.91944 2.53407C2.90106 2.57835 2.8916 2.62583 2.8916 2.67378C2.8916 2.72173 2.90106 2.76921 2.91944 2.8135C2.93782 2.85779 2.96475 2.89801 2.9987 2.93187L11.0185 10.9517C11.087 11.0201 11.1798 11.0586 11.2766 11.0586C11.3734 11.0586 11.4662 11.0201 11.5347 10.9517C11.6031 10.8832 11.6416 10.7904 11.6416 10.6936C11.6416 10.5968 11.6031 10.504 11.5347 10.4355L3.51488 2.41569C3.48102 2.38174 3.44079 2.35481 3.39651 2.33643C3.35222 2.31805 3.30474 2.30859 3.25679 2.30859C3.20884 2.30859 3.16136 2.31805 3.11708 2.33643C3.07279 2.35481 3.03256 2.38174 2.9987 2.41569Z"/>
</mask>
<path fill-rule="evenodd" clip-rule="evenodd" d="M2.9987 2.41569C2.96475 2.44955 2.93782 2.48978 2.91944 2.53407C2.90106 2.57835 2.8916 2.62583 2.8916 2.67378C2.8916 2.72173 2.90106 2.76921 2.91944 2.8135C2.93782 2.85779 2.96475 2.89801 2.9987 2.93187L11.0185 10.9517C11.087 11.0201 11.1798 11.0586 11.2766 11.0586C11.3734 11.0586 11.4662 11.0201 11.5347 10.9517C11.6031 10.8832 11.6416 10.7904 11.6416 10.6936C11.6416 10.5968 11.6031 10.504 11.5347 10.4355L3.51488 2.41569C3.48102 2.38174 3.44079 2.35481 3.39651 2.33643C3.35222 2.31805 3.30474 2.30859 3.25679 2.30859C3.20884 2.30859 3.16136 2.31805 3.11708 2.33643C3.07279 2.35481 3.03256 2.38174 2.9987 2.41569Z" fill="black"/>
<path d="M2.9987 2.41569L4.05802 3.47769L4.0607 3.47501L2.9987 2.41569ZM2.8916 2.67378H1.3916H2.8916ZM2.9987 2.93187L4.05936 1.87121L4.05802 1.86987L2.9987 2.93187ZM11.0185 10.9517L12.0792 9.89103L11.0185 10.9517ZM11.2766 11.0586V12.5586V11.0586ZM11.6416 10.6936H13.1416H11.6416ZM11.5347 10.4355L10.474 11.4962L11.5347 10.4355ZM3.51488 2.41569L2.45288 3.47501L2.45422 3.47635L3.51488 2.41569ZM3.25679 2.30859V0.808594V2.30859ZM2.9987 2.41569L1.93938 1.35369C1.76574 1.52689 1.62798 1.73264 1.53398 1.95917L2.91944 2.53407L4.30489 3.10897C4.24765 3.24691 4.16376 3.37221 4.05802 3.47769L2.9987 2.41569ZM2.91944 2.53407L1.53398 1.95917C1.43999 2.18569 1.3916 2.42853 1.3916 2.67378H2.8916H4.3916C4.3916 2.82314 4.36214 2.97102 4.30489 3.10897L2.91944 2.53407ZM2.8916 2.67378H1.3916C1.3916 2.91903 1.43999 3.16188 1.53398 3.3884L2.91944 2.8135L4.30489 2.2386C4.36214 2.37654 4.3916 2.52443 4.3916 2.67378H2.8916ZM2.91944 2.8135L1.53398 3.3884C1.62798 3.61492 1.76574 3.82067 1.93938 3.99387L2.9987 2.93187L4.05802 1.86987C4.16376 1.97535 4.24765 2.10065 4.30489 2.2386L2.91944 2.8135ZM2.9987 2.93187L1.93804 3.99253L9.95785 12.0123L11.0185 10.9517L12.0792 9.89103L4.05936 1.87121L2.9987 2.93187ZM11.0185 10.9517L9.95785 12.0123C10.3076 12.3621 10.782 12.5586 11.2766 12.5586V11.0586V9.55859C11.5776 9.55859 11.8663 9.67817 12.0792 9.89103L11.0185 10.9517ZM11.2766 11.0586V12.5586C11.7712 12.5586 12.2456 12.3621 12.5954 12.0123L11.5347 10.9517L10.474 9.89103C10.6869 9.67817 10.9756 9.55859 11.2766 9.55859V11.0586ZM11.5347 10.9517L12.5954 12.0123C12.9451 11.6626 13.1416 11.1882 13.1416 10.6936H11.6416H10.1416C10.1416 10.3926 10.2612 10.1039 10.474 9.89103L11.5347 10.9517ZM11.6416 10.6936H13.1416C13.1416 10.199 12.9451 9.7246 12.5954 9.37484L11.5347 10.4355L10.474 11.4962C10.2612 11.2833 10.1416 10.9946 10.1416 10.6936H11.6416ZM11.5347 10.4355L12.5954 9.37484L4.57554 1.35503L3.51488 2.41569L2.45422 3.47635L10.474 11.4962L11.5347 10.4355ZM3.51488 2.41569L4.57688 1.35637C4.40368 1.18273 4.19793 1.04497 3.97141 0.950974L3.39651 2.33643L2.8216 3.72189C2.68366 3.66465 2.55836 3.58075 2.45288 3.47501L3.51488 2.41569ZM3.39651 2.33643L3.97141 0.950974C3.74488 0.856978 3.50204 0.808594 3.25679 0.808594V2.30859V3.80859C3.10744 3.80859 2.95955 3.77913 2.8216 3.72189L3.39651 2.33643ZM3.25679 2.30859V0.808594C3.01154 0.808594 2.7687 0.856978 2.54217 0.950974L3.11708 2.33643L3.69198 3.72189C3.55403 3.77913 3.40614 3.80859 3.25679 3.80859V2.30859ZM3.11708 2.33643L2.54217 0.950974C2.31565 1.04497 2.1099 1.18273 1.9367 1.35637L2.9987 2.41569L4.0607 3.47501C3.95522 3.58075 3.82992 3.66465 3.69198 3.72189L3.11708 2.33643Z" fill="black" mask="url(#path-3-inside-2_1286_33887)"/>
</svg>
