<svg width="20" height="20" viewBox="0 0 20 20" fill="none" xmlns="http://www.w3.org/2000/svg">
<mask id="path-1-inside-1_1344_2511" fill="white">
<path d="M18.3334 18.9583H4.16675C2.44175 18.9583 1.04175 17.5583 1.04175 15.8333L1.04175 1.66666C1.04175 1.32499 1.32508 1.04166 1.66675 1.04166C2.00841 1.04166 2.29175 1.32499 2.29175 1.66666L2.29175 15.8333C2.29175 16.8667 3.13341 17.7083 4.16675 17.7083H18.3334C18.6751 17.7083 18.9584 17.9917 18.9584 18.3333C18.9584 18.675 18.6751 18.9583 18.3334 18.9583Z"/>
</mask>
<path d="M18.3334 18.9583H4.16675C2.44175 18.9583 1.04175 17.5583 1.04175 15.8333L1.04175 1.66666C1.04175 1.32499 1.32508 1.04166 1.66675 1.04166C2.00841 1.04166 2.29175 1.32499 2.29175 1.66666L2.29175 15.8333C2.29175 16.8667 3.13341 17.7083 4.16675 17.7083H18.3334C18.6751 17.7083 18.9584 17.9917 18.9584 18.3333C18.9584 18.675 18.6751 18.9583 18.3334 18.9583Z" fill="#25262F"/>
<path d="M18.3334 18.9583V17.4583H4.16675V18.9583L4.16675 20.4583H18.3334V18.9583ZM4.16675 18.9583V17.4583C3.27018 17.4583 2.54175 16.7299 2.54175 15.8333H1.04175H-0.458252C-0.458252 18.3868 1.61332 20.4583 4.16675 20.4583L4.16675 18.9583ZM1.04175 15.8333H2.54175L2.54175 1.66666H1.04175H-0.458252L-0.458252 15.8333H1.04175ZM1.04175 1.66666H2.54175C2.54175 2.15342 2.15351 2.54166 1.66675 2.54166V1.04166V-0.458344C0.496654 -0.458344 -0.458252 0.496563 -0.458252 1.66666H1.04175ZM1.66675 1.04166V2.54166C1.17999 2.54166 0.791748 2.15342 0.791748 1.66666H2.29175H3.79175C3.79175 0.496563 2.83684 -0.458344 1.66675 -0.458344V1.04166ZM2.29175 1.66666H0.791748L0.791748 15.8333H2.29175H3.79175L3.79175 1.66666H2.29175ZM2.29175 15.8333H0.791748C0.791748 17.6951 2.30499 19.2083 4.16675 19.2083L4.16675 17.7083V16.2083C3.96184 16.2083 3.79175 16.0382 3.79175 15.8333H2.29175ZM4.16675 17.7083L4.16675 19.2083H18.3334V17.7083V16.2083H4.16675V17.7083ZM18.3334 17.7083V19.2083C17.8467 19.2083 17.4584 18.8201 17.4584 18.3333H18.9584H20.4584C20.4584 17.1632 19.5035 16.2083 18.3334 16.2083V17.7083ZM18.9584 18.3333H17.4584C17.4584 17.8466 17.8467 17.4583 18.3334 17.4583V18.9583V20.4583C19.5035 20.4583 20.4584 19.5034 20.4584 18.3333H18.9584Z" fill="#0D4472" mask="url(#path-1-inside-1_1344_2511)"/>
<mask id="path-3-inside-2_1344_2511" fill="white">
<path d="M4.1666 14.7917C4.02493 14.7917 3.87493 14.7417 3.75827 14.6417C3.49993 14.4167 3.4666 14.025 3.6916 13.7583L7.5166 9.29168C7.93327 8.80835 8.53327 8.51668 9.1666 8.49168C9.79993 8.47501 10.4249 8.70835 10.8749 9.15835L11.6666 9.95001C11.8749 10.1583 12.1416 10.2583 12.4416 10.2583C12.7333 10.25 12.9999 10.1167 13.1916 9.89168L17.0166 5.42501C17.2416 5.16668 17.6333 5.13335 17.8999 5.35835C18.1583 5.58335 18.1916 5.97501 17.9666 6.24168L14.1416 10.7083C13.7249 11.1917 13.1249 11.4833 12.4916 11.5083C11.8499 11.525 11.2333 11.2917 10.7833 10.8417L9.99993 10.05C9.7916 9.84168 9.5166 9.73335 9.22493 9.74168C8.93327 9.75001 8.6666 9.88335 8.47493 10.1083L4.64993 14.575C4.5166 14.7167 4.3416 14.7917 4.1666 14.7917Z"/>
</mask>
<path d="M4.1666 14.7917C4.02493 14.7917 3.87493 14.7417 3.75827 14.6417C3.49993 14.4167 3.4666 14.025 3.6916 13.7583L7.5166 9.29168C7.93327 8.80835 8.53327 8.51668 9.1666 8.49168C9.79993 8.47501 10.4249 8.70835 10.8749 9.15835L11.6666 9.95001C11.8749 10.1583 12.1416 10.2583 12.4416 10.2583C12.7333 10.25 12.9999 10.1167 13.1916 9.89168L17.0166 5.42501C17.2416 5.16668 17.6333 5.13335 17.8999 5.35835C18.1583 5.58335 18.1916 5.97501 17.9666 6.24168L14.1416 10.7083C13.7249 11.1917 13.1249 11.4833 12.4916 11.5083C11.8499 11.525 11.2333 11.2917 10.7833 10.8417L9.99993 10.05C9.7916 9.84168 9.5166 9.73335 9.22493 9.74168C8.93327 9.75001 8.6666 9.88335 8.47493 10.1083L4.64993 14.575C4.5166 14.7167 4.3416 14.7917 4.1666 14.7917Z" fill="#25262F"/>
<path d="M3.75827 14.6417L2.77306 15.7728L2.78208 15.7806L3.75827 14.6417ZM3.6916 13.7583L2.55223 12.7827L2.54516 12.791L3.6916 13.7583ZM7.5166 9.29168L6.38048 8.31227L6.37727 8.31602L7.5166 9.29168ZM9.1666 8.49168L9.12714 6.9922L9.11729 6.99246L9.10744 6.99285L9.1666 8.49168ZM12.4416 10.2583V11.7583H12.463L12.4844 11.7577L12.4416 10.2583ZM13.1916 9.89168L12.0523 8.91602L12.0497 8.91898L13.1916 9.89168ZM17.0166 5.42501L15.8854 4.43981L15.8773 4.44935L17.0166 5.42501ZM17.8999 5.35835L18.8851 4.22723L18.8762 4.2195L18.8672 4.21191L17.8999 5.35835ZM17.9666 6.24168L19.106 7.21737L19.113 7.20899L17.9666 6.24168ZM14.1416 10.7083L15.2777 11.6878L15.2809 11.684L14.1416 10.7083ZM12.4916 11.5083L12.5305 13.0078L12.5407 13.0076L12.5508 13.0072L12.4916 11.5083ZM10.7833 10.8417L9.71699 11.8967L9.72261 11.9023L10.7833 10.8417ZM9.99993 10.05L11.0662 8.99497L11.0606 8.98935L9.99993 10.05ZM8.47493 10.1083L9.61427 11.084L9.6168 11.081L8.47493 10.1083ZM4.64993 14.575L5.74223 15.6031L5.76637 15.5774L5.78927 15.5507L4.64993 14.575ZM4.1666 14.7917L4.1666 13.2917C4.36064 13.2917 4.56274 13.3556 4.73445 13.5028L3.75827 14.6417L2.78208 15.7806C3.18712 16.1277 3.68923 16.2917 4.1666 16.2917V14.7917ZM3.75827 14.6417L4.74344 13.5106C5.09956 13.8207 5.14419 14.3628 4.83804 14.7257L3.6916 13.7583L2.54516 12.791C1.78901 13.6872 1.90031 15.0126 2.7731 15.7728L3.75827 14.6417ZM3.6916 13.7583L4.83093 14.734L8.65594 10.2673L7.5166 9.29168L6.37727 8.31602L2.55226 12.7827L3.6916 13.7583ZM7.5166 9.29168L8.65272 10.2711C8.80123 10.0988 9.01295 9.99891 9.22576 9.99051L9.1666 8.49168L9.10744 6.99285C8.05358 7.03445 7.0653 7.51788 6.38049 8.31227L7.5166 9.29168ZM9.1666 8.49168L9.20606 9.99116C9.45318 9.98466 9.67259 10.0773 9.81427 10.219L10.8749 9.15835L11.9356 8.09769C11.1773 7.33937 10.1467 6.96537 9.12714 6.9922L9.1666 8.49168ZM10.8749 9.15835L9.81427 10.219L10.6059 11.0107L11.6666 9.95001L12.7273 8.88935L11.9356 8.09769L10.8749 9.15835ZM11.6666 9.95001L10.6059 11.0107C11.1241 11.5289 11.7861 11.7583 12.4416 11.7583V10.2583V8.75835C12.4594 8.75835 12.5056 8.76165 12.5672 8.78577C12.6309 8.81076 12.6865 8.84861 12.7273 8.88935L11.6666 9.95001ZM12.4416 10.2583L12.4844 11.7577C13.2225 11.7366 13.8811 11.3954 14.3335 10.8644L13.1916 9.89168L12.0497 8.91898C12.1188 8.83795 12.2441 8.76338 12.3988 8.75896L12.4416 10.2583ZM13.1916 9.89168L14.3309 10.8673L18.1559 6.40068L17.0166 5.42501L15.8773 4.44935L12.0523 8.91602L13.1916 9.89168ZM17.0166 5.42501L18.1477 6.41019C17.8376 6.76631 17.2955 6.81094 16.9326 6.50478L17.8999 5.35835L18.8672 4.21191C17.9711 3.45576 16.6456 3.56706 15.8855 4.43984L17.0166 5.42501ZM17.8999 5.35835L16.9148 6.48947C16.5586 6.1793 16.514 5.63722 16.8202 5.27437L17.9666 6.24168L19.113 7.20899C19.8692 6.31281 19.7579 4.9874 18.8851 4.22723L17.8999 5.35835ZM17.9666 6.24168L16.8273 5.26602L13.0023 9.73269L14.1416 10.7083L15.2809 11.684L19.1059 7.21734L17.9666 6.24168ZM14.1416 10.7083L13.0055 9.72894C12.857 9.90122 12.6452 10.0011 12.4324 10.0095L12.4916 11.5083L12.5508 13.0072C13.6046 12.9656 14.5929 12.4821 15.2777 11.6878L14.1416 10.7083ZM12.4916 11.5083L12.4527 10.0089C12.1993 10.0154 11.9873 9.92437 11.8439 9.78102L10.7833 10.8417L9.72261 11.9023C10.4793 12.659 11.5005 13.0346 12.5305 13.0078L12.4916 11.5083ZM10.7833 10.8417L11.8495 9.78665L11.0662 8.99498L9.99993 10.05L8.93368 11.105L9.71701 11.8967L10.7833 10.8417ZM9.99993 10.05L11.0606 8.98935C10.5594 8.4882 9.88487 8.22221 9.18209 8.24229L9.22493 9.74168L9.26777 11.2411C9.14833 11.2445 9.02376 11.1952 8.93927 11.1107L9.99993 10.05ZM9.22493 9.74168L9.18209 8.24229C8.44405 8.26338 7.78543 8.60461 7.33307 9.13565L8.47493 10.1083L9.6168 11.081C9.54777 11.1621 9.42248 11.2366 9.26777 11.2411L9.22493 9.74168ZM8.47493 10.1083L7.3356 9.13269L3.5106 13.5994L4.64993 14.575L5.78927 15.5507L9.61427 11.084L8.47493 10.1083ZM4.64993 14.575L3.55763 13.547C3.69387 13.4022 3.90817 13.2917 4.1666 13.2917L4.1666 14.7917V16.2917C4.77503 16.2917 5.33933 16.0311 5.74223 15.6031L4.64993 14.575Z" fill="#0D4472" mask="url(#path-3-inside-2_1344_2511)"/>
</svg>
