<svg width="24" height="24" viewBox="0 0 24 24" fill="none" xmlns="http://www.w3.org/2000/svg">
<path d="M8.57031 15.27L15.1103 8.73004" stroke="#2570A3" stroke-width="1.5" stroke-linecap="round" stroke-linejoin="round"/>
<path d="M8.98001 10.37C9.65932 10.37 10.21 9.81936 10.21 9.14005C10.21 8.46073 9.65932 7.91003 8.98001 7.91003C8.3007 7.91003 7.75 8.46073 7.75 9.14005C7.75 9.81936 8.3007 10.37 8.98001 10.37Z" stroke="#2570A3" stroke-width="1.5" stroke-linecap="round" stroke-linejoin="round"/>
<path d="M15.519 16.0899C16.1984 16.0899 16.7491 15.5392 16.7491 14.8599C16.7491 14.1806 16.1984 13.6299 15.519 13.6299C14.8397 13.6299 14.2891 14.1806 14.2891 14.8599C14.2891 15.5392 14.8397 16.0899 15.519 16.0899Z" stroke="#2570A3" stroke-width="1.5" stroke-linecap="round" stroke-linejoin="round"/>
<path d="M12 21.9999C17.5228 21.9999 22 17.5228 22 11.9999C22 6.47709 17.5228 1.99994 12 1.99994C6.47715 1.99994 2 6.47709 2 11.9999C2 17.5228 6.47715 21.9999 12 21.9999Z" stroke="#2570A3" stroke-width="1.5" stroke-linecap="round" stroke-linejoin="round"/>
</svg>
