<svg width="21" height="20" viewBox="0 0 21 20" fill="none" xmlns="http://www.w3.org/2000/svg">
<path d="M16.8812 6.87435V14.9993C16.8812 17.4993 15.3895 18.3327 13.5479 18.3327H6.88118C5.03952 18.3327 3.54785 17.4993 3.54785 14.9993L3.54785 6.87435C3.54785 4.16602 5.03952 3.54102 6.88118 3.54102C6.88118 4.05768 7.0895 4.52435 7.43116 4.86601C7.77283 5.20768 8.23952 5.41602 8.75618 5.41602H11.6729C12.7062 5.41602 13.5479 4.57435 13.5479 3.54102C15.3895 3.54102 16.8812 4.16602 16.8812 6.87435Z" stroke="#7A7C86" stroke-linecap="round" stroke-linejoin="round"/>
<path d="M13.5485 3.54102C13.5485 4.57435 12.7068 5.41602 11.6735 5.41602H8.75684C8.24017 5.41602 7.77348 5.20768 7.43181 4.86601C7.09015 4.52435 6.88184 4.05768 6.88184 3.54102C6.88184 2.50768 7.7235 1.66602 8.75684 1.66602H11.6735C12.1902 1.66602 12.6569 1.87435 12.9985 2.21602C13.3402 2.55769 13.5485 3.02435 13.5485 3.54102Z" stroke="#7A7C86" stroke-linecap="round" stroke-linejoin="round"/>
<path d="M6.88184 10.834H10.2152" stroke="#7A7C86" stroke-linecap="round" stroke-linejoin="round"/>
<path d="M6.88184 14.166H13.5485" stroke="#7A7C86" stroke-linecap="round" stroke-linejoin="round"/>
</svg>
