<svg width="240" height="44" viewBox="0 0 240 44" fill="none" xmlns="http://www.w3.org/2000/svg">
<path d="M0 22C0 9.84974 9.84974 0 22 0H218C230.15 0 240 9.84974 240 22C240 34.1503 230.15 44 218 44H22C9.84973 44 0 34.1503 0 22Z" fill="white"/>
<path d="M26 24.5C27.3807 24.5 28.5 23.3807 28.5 22C28.5 20.6193 27.3807 19.5 26 19.5C24.6193 19.5 23.5 20.6193 23.5 22C23.5 23.3807 24.6193 24.5 26 24.5Z" stroke="#25262F" stroke-miterlimit="10" stroke-linecap="round" stroke-linejoin="round"/>
<path d="M17.667 22.7334V21.2667C17.667 20.4 18.3753 19.6834 19.2503 19.6834C20.7587 19.6834 21.3753 18.6167 20.617 17.3084C20.1837 16.5584 20.442 15.5834 21.2003 15.15L22.642 14.325C23.3003 13.9334 24.1503 14.1667 24.542 14.825L24.6337 14.9834C25.3837 16.2917 26.617 16.2917 27.3753 14.9834L27.467 14.825C27.8587 14.1667 28.7087 13.9334 29.367 14.325L30.8087 15.15C31.567 15.5834 31.8253 16.5584 31.392 17.3084C30.6337 18.6167 31.2503 19.6834 32.7587 19.6834C33.6253 19.6834 34.342 20.3917 34.342 21.2667V22.7334C34.342 23.6 33.6337 24.3167 32.7587 24.3167C31.2503 24.3167 30.6337 25.3834 31.392 26.6917C31.8253 27.45 31.567 28.4167 30.8087 28.85L29.367 29.675C28.7087 30.0667 27.8587 29.8334 27.467 29.175L27.3753 29.0167C26.6253 27.7084 25.392 27.7084 24.6337 29.0167L24.542 29.175C24.1503 29.8334 23.3003 30.0667 22.642 29.675L21.2003 28.85C20.442 28.4167 20.1837 27.4417 20.617 26.6917C21.3753 25.3834 20.7587 24.3167 19.2503 24.3167C18.3753 24.3167 17.667 23.6 17.667 22.7334Z" stroke="#25262F" stroke-miterlimit="10" stroke-linecap="round" stroke-linejoin="round"/>
<path d="M48.768 27.192C47.9467 27.192 47.232 27.0427 46.624 26.744C46.016 26.4453 45.5467 26.0293 45.216 25.496C44.8853 24.9627 44.72 24.344 44.72 23.64H46.128C46.128 24.0773 46.2293 24.4827 46.432 24.856C46.6347 25.2187 46.928 25.512 47.312 25.736C47.7067 25.9493 48.192 26.056 48.768 26.056C49.2693 26.056 49.696 25.976 50.048 25.816C50.4107 25.6453 50.6827 25.416 50.864 25.128C51.056 24.84 51.152 24.5147 51.152 24.152C51.152 23.7147 51.056 23.3627 50.864 23.096C50.672 22.8187 50.416 22.5947 50.096 22.424C49.776 22.2533 49.408 22.104 48.992 21.976C48.576 21.8373 48.1333 21.688 47.664 21.528C46.7893 21.2293 46.144 20.8613 45.728 20.424C45.312 19.976 45.104 19.3947 45.104 18.68C45.104 18.072 45.2427 17.5387 45.52 17.08C45.808 16.6213 46.2133 16.264 46.736 16.008C47.2693 15.7413 47.8987 15.608 48.624 15.608C49.3387 15.608 49.9573 15.7413 50.48 16.008C51.0133 16.2747 51.4293 16.6427 51.728 17.112C52.0267 17.5707 52.176 18.104 52.176 18.712H50.768C50.768 18.4027 50.688 18.0987 50.528 17.8C50.368 17.5013 50.1227 17.256 49.792 17.064C49.472 16.8613 49.0667 16.76 48.576 16.76C48.1707 16.7493 47.808 16.8187 47.488 16.968C47.1787 17.1067 46.9333 17.3093 46.752 17.576C46.5813 17.8427 46.496 18.168 46.496 18.552C46.496 18.9147 46.5707 19.208 46.72 19.432C46.88 19.656 47.104 19.848 47.392 20.008C47.6907 20.1573 48.0373 20.296 48.432 20.424C48.8267 20.552 49.264 20.696 49.744 20.856C50.288 21.0373 50.768 21.2613 51.184 21.528C51.6107 21.784 51.9413 22.1147 52.176 22.52C52.4213 22.9253 52.544 23.4427 52.544 24.072C52.544 24.6053 52.4 25.112 52.112 25.592C51.8347 26.0613 51.4187 26.4453 50.864 26.744C50.3093 27.0427 49.6107 27.192 48.768 27.192ZM58.0972 27.192C57.3506 27.192 56.6839 27.016 56.0972 26.664C55.5106 26.312 55.0466 25.8213 54.7052 25.192C54.3746 24.5627 54.2092 23.8267 54.2092 22.984C54.2092 22.1307 54.3746 21.3947 54.7052 20.776C55.0359 20.1467 55.4946 19.656 56.0812 19.304C56.6786 18.952 57.3613 18.776 58.1293 18.776C58.9186 18.776 59.5906 18.952 60.1453 19.304C60.6999 19.656 61.1213 20.1147 61.4093 20.68C61.7079 21.2453 61.8573 21.8693 61.8573 22.552C61.8573 22.6587 61.8573 22.7707 61.8573 22.888C61.8573 23.0053 61.8519 23.1387 61.8413 23.288H55.2172V22.248H60.5293C60.4973 21.512 60.2519 20.9413 59.7933 20.536C59.3453 20.12 58.7799 19.912 58.0972 19.912C57.6493 19.912 57.2279 20.0187 56.8333 20.232C56.4386 20.4347 56.1186 20.7333 55.8733 21.128C55.6386 21.5227 55.5213 22.0187 55.5213 22.616V23.064C55.5213 23.7253 55.6439 24.28 55.8893 24.728C56.1346 25.1653 56.4493 25.496 56.8333 25.72C57.2279 25.944 57.6493 26.056 58.0972 26.056C58.6626 26.056 59.1266 25.9333 59.4893 25.688C59.8626 25.432 60.1346 25.0853 60.3053 24.648H61.6333C61.4946 25.1387 61.2653 25.576 60.9453 25.96C60.6253 26.3333 60.2253 26.632 59.7453 26.856C59.2759 27.08 58.7266 27.192 58.0972 27.192ZM66.7014 27C66.2214 27 65.8054 26.9253 65.4534 26.776C65.1014 26.6267 64.8294 26.376 64.6374 26.024C64.456 25.6613 64.3654 25.176 64.3654 24.568V20.104H62.9734V18.968H64.3654L64.5414 17.032H65.7094V18.968H68.0614V20.104H65.7094V24.568C65.7094 25.0693 65.8107 25.4107 66.0134 25.592C66.216 25.7627 66.5734 25.848 67.0854 25.848H67.9494V27H66.7014ZM73.1114 27C72.6314 27 72.2154 26.9253 71.8634 26.776C71.5114 26.6267 71.2394 26.376 71.0474 26.024C70.866 25.6613 70.7754 25.176 70.7754 24.568V20.104H69.3834V18.968H70.7754L70.9514 17.032H72.1194V18.968H74.4714V20.104H72.1194V24.568C72.1194 25.0693 72.2207 25.4107 72.4234 25.592C72.626 25.7627 72.9834 25.848 73.4954 25.848H74.3594V27H73.1114ZM76.4974 27V18.968H77.8414V27H76.4974ZM77.1694 17.24C76.9027 17.24 76.6787 17.1547 76.4974 16.984C76.3267 16.8027 76.2414 16.5787 76.2414 16.312C76.2414 16.0453 76.3267 15.832 76.4974 15.672C76.6787 15.5013 76.9027 15.416 77.1694 15.416C77.4254 15.416 77.644 15.5013 77.8254 15.672C78.0067 15.832 78.0974 16.0453 78.0974 16.312C78.0974 16.5787 78.0067 16.8027 77.8254 16.984C77.644 17.1547 77.4254 17.24 77.1694 17.24ZM80.3415 27V18.968H81.5575L81.6375 20.376C81.8935 19.8747 82.2562 19.4853 82.7255 19.208C83.2055 18.92 83.7495 18.776 84.3575 18.776C84.9868 18.776 85.5308 18.8987 85.9895 19.144C86.4482 19.3893 86.8055 19.768 87.0615 20.28C87.3175 20.792 87.4455 21.4373 87.4455 22.216V27H86.1015V22.36C86.1015 21.5493 85.9255 20.9413 85.5735 20.536C85.2215 20.1307 84.7148 19.928 84.0535 19.928C83.6055 19.928 83.2002 20.04 82.8375 20.264C82.4855 20.4773 82.2028 20.792 81.9895 21.208C81.7868 21.624 81.6855 22.1307 81.6855 22.728V27H80.3415ZM92.8574 30.712C92.132 30.712 91.492 30.616 90.9374 30.424C90.3827 30.2427 89.9507 29.96 89.6414 29.576C89.332 29.192 89.1774 28.7173 89.1774 28.152C89.1774 27.9067 89.2254 27.6453 89.3214 27.368C89.428 27.1013 89.604 26.8347 89.8494 26.568C90.1054 26.3013 90.4627 26.0613 90.9214 25.848L91.8334 26.392C91.2787 26.6267 90.916 26.8933 90.7454 27.192C90.5747 27.4907 90.4894 27.768 90.4894 28.024C90.4894 28.376 90.5907 28.6693 90.7934 28.904C90.996 29.1387 91.2734 29.3147 91.6254 29.432C91.988 29.5493 92.3987 29.608 92.8574 29.608C93.316 29.608 93.7107 29.5387 94.0414 29.4C94.372 29.272 94.628 29.0907 94.8094 28.856C94.9907 28.632 95.0814 28.36 95.0814 28.04C95.0814 27.6773 94.9427 27.368 94.6654 27.112C94.388 26.8667 93.8654 26.7227 93.0974 26.68C92.4574 26.6373 91.924 26.5787 91.4974 26.504C91.0814 26.4293 90.7347 26.344 90.4574 26.248C90.18 26.1413 89.9454 26.024 89.7534 25.896C89.572 25.768 89.4067 25.6347 89.2574 25.496V25.128L90.8094 23.576L91.9774 23.992L90.3774 25.448L90.5854 24.888C90.7027 24.9733 90.8147 25.0533 90.9214 25.128C91.028 25.192 91.172 25.2507 91.3534 25.304C91.5347 25.3573 91.7854 25.4107 92.1054 25.464C92.4254 25.5067 92.8574 25.5493 93.4014 25.592C94.1267 25.6453 94.708 25.7733 95.1454 25.976C95.5934 26.1787 95.9134 26.4507 96.1054 26.792C96.308 27.1333 96.4094 27.5333 96.4094 27.992C96.4094 28.4507 96.2814 28.8827 96.0254 29.288C95.78 29.704 95.396 30.0453 94.8734 30.312C94.3507 30.5787 93.6787 30.712 92.8574 30.712ZM92.8414 24.472C92.1694 24.472 91.5987 24.3493 91.1294 24.104C90.66 23.848 90.3027 23.5067 90.0574 23.08C89.812 22.6427 89.6894 22.1573 89.6894 21.624C89.6894 21.0907 89.812 20.6107 90.0574 20.184C90.3027 19.7573 90.66 19.416 91.1294 19.16C91.5987 18.904 92.1694 18.776 92.8414 18.776C93.524 18.776 94.1 18.904 94.5694 19.16C95.0387 19.416 95.396 19.7573 95.6414 20.184C95.8867 20.6107 96.0094 21.0907 96.0094 21.624C96.0094 22.1573 95.8867 22.6427 95.6414 23.08C95.396 23.5067 95.0387 23.848 94.5694 24.104C94.1 24.3493 93.524 24.472 92.8414 24.472ZM92.8414 23.368C93.4174 23.368 93.8707 23.224 94.2014 22.936C94.5427 22.6373 94.7134 22.2 94.7134 21.624C94.7134 21.0693 94.5427 20.6427 94.2014 20.344C93.8707 20.0453 93.4174 19.896 92.8414 19.896C92.276 19.896 91.8227 20.0453 91.4814 20.344C91.14 20.6427 90.9694 21.0693 90.9694 21.624C90.9694 22.2 91.14 22.6373 91.4814 22.936C91.8227 23.224 92.276 23.368 92.8414 23.368ZM94.1534 20.104L93.7534 18.968H97.0494V19.976L94.1534 20.104ZM101.78 27.192C101.129 27.192 100.553 27.0853 100.052 26.872C99.5503 26.648 99.1503 26.3333 98.8516 25.928C98.5636 25.5227 98.3823 25.048 98.3076 24.504H99.6836C99.7476 24.7813 99.865 25.0427 100.036 25.288C100.206 25.5227 100.436 25.7093 100.724 25.848C101.022 25.9867 101.38 26.056 101.796 26.056C102.18 26.056 102.494 26.0027 102.74 25.896C102.985 25.7787 103.166 25.624 103.284 25.432C103.401 25.24 103.46 25.032 103.46 24.808C103.46 24.488 103.38 24.2427 103.22 24.072C103.07 23.9013 102.846 23.768 102.548 23.672C102.249 23.5653 101.892 23.4747 101.476 23.4C101.124 23.336 100.777 23.2507 100.436 23.144C100.105 23.0373 99.8063 22.8987 99.5396 22.728C99.273 22.5573 99.0596 22.344 98.8996 22.088C98.7396 21.8213 98.6596 21.5067 98.6596 21.144C98.6596 20.6853 98.777 20.28 99.0116 19.928C99.257 19.5653 99.593 19.2827 100.02 19.08C100.457 18.8773 100.974 18.776 101.572 18.776C102.425 18.776 103.118 18.984 103.652 19.4C104.196 19.816 104.51 20.4187 104.596 21.208H103.268C103.225 20.8027 103.054 20.488 102.756 20.264C102.457 20.0293 102.057 19.912 101.556 19.912C101.054 19.912 100.67 20.0133 100.404 20.216C100.148 20.4187 100.02 20.6853 100.02 21.016C100.02 21.2293 100.089 21.416 100.228 21.576C100.377 21.736 100.596 21.8747 100.884 21.992C101.172 22.0987 101.518 22.1947 101.924 22.28C102.446 22.376 102.926 22.504 103.364 22.664C103.801 22.824 104.153 23.0587 104.42 23.368C104.697 23.6773 104.836 24.12 104.836 24.696C104.846 25.1973 104.724 25.6347 104.468 26.008C104.222 26.3813 103.87 26.6747 103.412 26.888C102.953 27.0907 102.409 27.192 101.78 27.192Z" fill="#25262F"/>
</svg>
