<svg width="20" height="24" viewBox="0 0 20 24" fill="none" xmlns="http://www.w3.org/2000/svg">
<path d="M6.38967 0.395295C6.89679 0.686716 7.30103 1.08223 7.71391 1.49093C7.76498 1.53747 7.81605 1.58401 7.86866 1.63196C8.41328 2.13884 8.83982 2.75997 9.28063 3.35584C9.3276 3.41894 9.3276 3.41894 9.37553 3.48332C10.079 4.43231 10.7177 5.42959 11.3696 6.41428C11.5067 6.20866 11.6018 6.00703 11.6986 5.78062C12.2773 4.42906 12.9371 3.1102 13.8316 1.93851C13.8822 1.8719 13.8822 1.8719 13.9338 1.80396C14.4409 1.14695 15.0304 0.481389 15.8459 0.222791C16.5201 0.148565 17.0057 0.212844 17.5438 0.620541C19.3839 2.25007 19.559 5.67464 19.6995 7.9301C19.9451 12.691 19.799 19.062 16.592 22.9001C16.137 23.3938 15.5903 23.7418 14.916 23.8284C13.991 23.8586 13.3998 23.5662 12.7125 22.9747C12.6572 22.9293 12.6019 22.8839 12.5449 22.8371C12.0931 22.455 11.7333 22.0222 11.3696 21.5573C11.3044 21.4763 11.2391 21.3954 11.1737 21.3146C10.6571 20.6722 10.1866 20.0044 9.72826 19.3194C9.67797 19.2443 9.62767 19.1692 9.57585 19.0918C9.22783 18.5715 8.88083 18.0506 8.53457 17.5291C8.51892 17.5676 8.50327 17.6061 8.48714 17.6457C7.60948 19.7862 6.45262 22.59 4.28206 23.7206C3.82265 23.8737 3.27415 23.8786 2.83192 23.6693C2.58 23.521 2.38685 23.3438 2.19311 23.1239C2.13406 23.0569 2.07501 22.99 2.01417 22.921C0.1678 20.6912 0.207814 16.7724 0.225388 14.0744C0.225735 13.9785 0.226083 13.8827 0.22644 13.7839C0.232578 12.334 0.269688 10.9094 0.477182 9.47273C0.492159 9.36566 0.507131 9.25858 0.522098 9.15151C0.898863 6.49718 1.3969 3.34021 3.23758 1.26714C3.28173 1.21521 3.32587 1.16329 3.37135 1.10979C4.16238 0.242212 5.29362 -0.0967166 6.38967 0.395295ZM14.0647 5.29534C13.0075 6.56109 13.0075 6.56109 12.5006 8.01869C12.6413 8.436 13.0399 8.71961 13.3933 8.95988C13.6063 9.03916 13.6063 9.03916 13.8316 9.00651C14.5063 8.61298 14.7511 7.68243 14.9489 6.97376C15.0021 6.76292 15.0528 6.55197 15.0999 6.33969C15.1433 7.91303 15.1632 9.84769 14.2046 11.1884C13.9397 11.4407 13.7442 11.5447 13.3793 11.5894C12.5961 11.5148 12.0013 10.9744 11.5031 10.4023C11.3906 10.2654 11.2794 10.1275 11.1694 9.98879C10.9916 9.76484 10.8082 9.54652 10.6235 9.3282C10.3195 8.96421 10.0319 8.59105 9.74954 8.21013C9.05947 7.28191 8.35356 6.36611 7.5647 5.51913C7.51383 5.46422 7.46295 5.40931 7.41054 5.35274C6.99005 4.9142 6.53518 4.51281 5.90939 4.45147C5.4071 4.49264 5.07971 4.69471 4.72969 5.0529C4.3338 5.52714 4.08203 6.07654 3.83443 6.63807C3.81385 6.68449 3.79327 6.73092 3.77206 6.77874C2.26497 10.2644 1.63035 15.8005 2.95111 19.4066C3.12968 19.7952 3.31818 20.0645 3.68522 20.2892C3.92417 20.3476 4.05775 20.325 4.27886 20.2196C5.68667 19.3648 7.02107 17.5307 7.4901 15.9626C7.00986 15.377 7.00986 15.377 6.37102 14.9929C6.17494 14.9624 6.17494 14.9624 5.99799 15.0675C5.23666 15.7639 5.01865 16.8568 4.8043 17.8275C4.75829 16.1868 4.7621 14.0226 5.84878 12.6804C6.18107 12.4538 6.4983 12.3923 6.89325 12.4566C8.05384 12.8075 8.99303 14.2104 9.6906 15.1415C10.4298 16.1271 11.1762 17.1059 11.9664 18.0513C12.026 18.1233 12.0855 18.1954 12.1468 18.2696C12.6011 18.7994 13.1518 19.3286 13.8316 19.5432C14.2766 19.5665 14.6096 19.4604 14.9506 19.1703C16.4825 17.7702 16.8959 15.1538 17.2028 13.2025C17.2144 13.1293 17.2259 13.056 17.2378 12.9805C17.4293 11.6904 17.5136 10.408 17.5108 9.10434C17.5105 8.87608 17.5123 8.64789 17.5142 8.41964C17.5249 6.00082 17.5249 6.00082 16.5174 3.87801C15.5802 3.25333 14.5773 4.64683 14.0647 5.29534Z" fill="#FE163F"/>
<path d="M6.38966 0.395295C6.89679 0.686716 7.30103 1.08223 7.71391 1.49093C7.76498 1.53747 7.81605 1.58401 7.86866 1.63196C9.02274 2.70606 9.89375 4.18 10.7494 5.49582C10.8099 5.58835 10.8703 5.68086 10.9308 5.77337C11.2431 6.25142 11.5524 6.73118 11.8575 7.21385C12.109 7.60679 12.3694 7.95953 12.7125 8.27919C12.7652 8.32968 12.8179 8.38016 12.8722 8.43217C12.9593 8.51338 12.9593 8.51338 13.0482 8.59623C13.1028 8.64738 13.1575 8.69854 13.2137 8.75125C13.407 8.8929 13.5174 8.94317 13.757 8.95056C14.2326 8.7539 14.3964 8.3065 14.5858 7.85904C14.8073 7.27029 14.9505 6.65154 15.0999 6.0413C15.1245 6.0413 15.1491 6.0413 15.1745 6.0413C15.2748 10.1427 15.2748 10.1427 14.1638 11.3097C13.9124 11.5287 13.7097 11.6235 13.3793 11.664C12.5582 11.5858 11.9449 10.9938 11.4235 10.3973C11.3118 10.2613 11.2014 10.1242 11.0921 9.98617C10.9154 9.76289 10.7328 9.54558 10.5489 9.3282C10.2449 8.96421 9.95729 8.59105 9.67493 8.21013C8.98477 7.28177 8.27815 6.36703 7.4901 5.51913C7.4447 5.4697 7.39931 5.42028 7.35254 5.36935C6.95381 4.95073 6.50127 4.58409 5.90939 4.52607C5.4342 4.56501 5.09888 4.7493 4.767 5.0902C2.38496 8.01991 2.20773 13.5899 2.54748 17.1422C2.72001 18.7446 2.72001 18.7446 3.49404 20.112C3.74456 20.2464 3.85104 20.2688 4.13285 20.2146C5.50552 19.5512 6.43896 17.9509 7.13164 16.6605C7.24559 16.4487 7.36436 16.2422 7.4901 16.0372C7.90973 16.4175 8.35438 16.914 8.53457 17.4545C8.48624 17.6307 8.43235 17.7929 8.36671 17.9627C8.34681 18.0146 8.32692 18.0664 8.30642 18.1198C7.51715 20.1101 6.26378 22.6883 4.28206 23.7206C3.82265 23.8737 3.27415 23.8786 2.83192 23.6693C2.58 23.521 2.38685 23.3438 2.19311 23.1239C2.13406 23.0569 2.07501 22.99 2.01417 22.921C0.167801 20.6912 0.207814 16.7724 0.225388 14.0744C0.225735 13.9785 0.226083 13.8827 0.22644 13.7839C0.232578 12.334 0.269688 10.9094 0.477182 9.47273C0.492159 9.36566 0.50713 9.25858 0.522098 9.15151C0.898863 6.49718 1.3969 3.34021 3.23758 1.26714C3.28173 1.21521 3.32587 1.16329 3.37135 1.10979C4.16238 0.242212 5.29362 -0.0967166 6.38966 0.395295Z" fill="#004376"/>
</svg>
